<svg width="23" height="43" viewBox="0 0 23 43" fill="none" xmlns="http://www.w3.org/2000/svg">
<path d="M0.601105 41.922V1.20001H14.8692L16.312 1.65955L17.8234 2.34655L19.4722 3.85795L21.2833 6.91885L21.7241 10.4848L21.5972 16.3481L21.2833 18.1381L20.3146 20.7456L18.2145 22.6766L16.8473 23.1981L18.6514 23.7055L20.3146 25.4673L21.2833 28.2764L21.5613 30.5574L21.6458 31.6053V33.3757V41.922H14.3615V29.4754L13.7879 28.7298L12.9849 27.64L11.4362 26.7223H7.708V41.922H0.601105Z" stroke="black"/>
<path d="M7.68893 7.51202V7.62652M7.68893 7.62652V20.2639H11.2226L12.0996 20.0347L13.3245 19.2385L14.0472 18.0381L14.3044 16.6295V10.848L14.0472 9.69659L13.398 8.60643L12.4549 7.95724L11.3525 7.62652H7.68893Z" stroke="black"/>
<path d="M1.99862 39.5448C2.10926 39.2613 2.128 39.061 2.128 38.7686C2.128 38.2229 2.00355 39.1831 1.99862 39.3508C1.99166 39.5875 1.99862 39.8254 1.99862 40.0623C1.99862 40.7135 2.12054 38.7649 2.22144 38.1217C2.32557 37.4578 2.32207 36.8193 2.32207 36.145C2.32207 35.1176 2.06331 34.1512 2.06331 33.1262C2.06331 29.6593 2.06331 26.1924 2.06331 22.7255" stroke="black" stroke-width="3" stroke-linecap="round"/>
<path d="M3.03366 40.7739C3.80781 40.8664 4.5271 40.7739 5.2942 40.7739C5.6981 40.7739 6.01007 40.6446 6.39752 40.6446" stroke="black" stroke-width="3" stroke-linecap="round"/>
<path d="M5.10373 3.18925C5.10373 6.24314 4.92517 9.3104 5.04264 12.3644C5.08613 13.4953 5.43871 14.6231 5.60687 15.739C5.68493 16.2571 5.86451 16.7524 5.9447 17.2736C6.05752 18.007 6.13375 18.7486 6.13877 19.491C6.14599 20.5607 6.13877 21.6307 6.13877 22.7004C6.13877 24.1966 6.13877 25.6929 6.13877 27.1891C6.13877 29.719 5.75063 32.1944 5.75063 34.7147C5.75063 35.3638 5.7924 36.0064 5.81532 36.6482C5.82682 36.9702 5.90549 37.2174 5.97704 37.5323C6.02579 37.7468 5.97971 37.9699 6.05251 38.1792C6.11736 38.3656 6.20346 38.5066 6.20346 38.7039" stroke="black" stroke-width="3" stroke-linecap="round"/>
<path d="M5.16842 38.7686C5.05056 38.4358 5.10459 37.7344 4.84497 37.4748C4.77716 37.407 4.65935 37.408 4.61496 37.3166C4.523 37.1273 4.58621 36.7869 4.58621 36.5835C4.58621 36.0899 4.58621 35.5964 4.58621 35.1028C4.58621 34.9543 4.73476 34.6572 4.58621 34.6572C4.54171 34.6572 4.37514 35.4332 4.37058 35.455C4.27998 35.8876 4.27582 36.3275 4.21245 36.7632C4.19992 36.8493 4.1663 37.0234 4.20167 37.1118C4.36432 37.5184 4.29373 36.2405 4.32386 35.8036C4.35006 35.4236 4.25304 36.5624 4.19807 36.9393C4.16583 37.1604 3.93057 38.1016 4.03276 37.3238C4.25114 35.6616 5.13192 34.2121 5.25108 32.544C5.386 30.655 5.2978 28.7376 5.2978 26.8441C5.2978 26.2596 5.30492 25.6747 5.2978 25.0903C5.29199 24.6142 5.21786 24.1477 5.18279 23.6743C5.14318 23.1395 5.19479 22.5606 5.03544 22.0427C4.92274 21.6764 4.92727 21.0151 4.64371 21.7192C4.17339 22.8872 3.89581 24.1246 3.45414 25.3023C2.70771 27.2928 2.47094 29.4202 2.51614 31.5449C2.52647 32.0301 2.75519 32.4679 2.77849 32.9573C2.79128 33.2257 2.80634 33.7356 3.00131 33.9456C3.0913 34.0425 3.1232 33.7036 3.13429 33.5718C3.19724 32.8238 3.1428 32.0708 3.20617 31.3221C3.28494 30.3913 3.54328 29.4848 3.68056 28.562C3.82953 27.5605 3.89509 26.5547 3.92494 25.5431C3.95789 24.4263 3.93931 23.3073 3.93931 22.19C3.93931 21.5932 3.63198 21.214 3.26726 21.9996C3.12004 22.3166 3.16304 21.5598 3.16304 21.4281C3.16304 20.2958 3.04731 19.2204 2.93303 18.0966C2.8081 16.8681 2.90428 15.579 2.90428 14.3446C2.90428 12.8302 3.00419 11.2809 2.87194 9.77322C2.76097 8.50822 2.71021 7.18511 2.71021 5.91699C2.71021 5.01794 2.62758 4.07319 2.7749 3.18925" stroke="black" stroke-width="3" stroke-linecap="round"/>
<path d="M2.77491 3.05987C2.77491 2.7364 2.86096 2.41297 2.45146 2.41297" stroke="black" stroke-width="3" stroke-linecap="round"/>
<path d="M4.58622 38.1863C4.58622 38.7061 4.65162 39.2153 4.32746 39.6598C4.19035 39.8479 4.10818 40.1139 3.87463 40.1917" stroke="black" stroke-width="3" stroke-linecap="round"/>
<path d="M3.87463 39.2214C3.87463 37.9796 3.92404 36.7619 4.05432 35.5269C4.14023 34.7125 4.14251 33.8867 4.13338 33.0687C4.11893 31.7735 3.87083 30.5767 3.62305 29.3131C3.41578 28.256 3.16304 27.1446 3.16304 26.0606C3.16304 25.8642 3.16624 25.5606 3.08397 25.3778C2.86455 24.8902 2.88258 24.3094 2.73896 23.7965C2.55442 23.1374 2.4835 22.4435 2.24301 21.7983C1.96881 21.0626 1.80456 20.4169 1.80456 19.642C1.80456 18.9191 1.78813 18.194 1.80456 17.4713C1.81031 17.2181 1.92699 16.9987 1.93394 16.7453C1.94628 16.2949 2.01835 15.8651 2.09207 15.4228C2.14636 15.097 2.18012 14.7219 2.19269 14.3949C2.21409 13.8388 2.43187 13.2972 2.45145 12.7489C2.4574 12.5825 2.51614 12.4302 2.51614 12.2602C2.51614 12.1142 2.61407 12.08 2.64193 11.9547C2.69091 11.7343 2.64552 11.4531 2.64552 11.2251C2.64552 10.6741 2.83959 10.2371 2.83959 9.7229" stroke="black" stroke-width="3" stroke-linecap="round"/>
<path d="M4.0687 14.1865C4.20745 15.2098 4.21306 16.3044 4.47121 17.2988C4.66983 18.0639 4.84497 18.8293 4.84497 19.6204" stroke="black" stroke-width="3" stroke-linecap="round"/>
<path d="M4.58621 20.332C4.66327 19.6256 4.92427 18.9806 5.01029 18.2763C5.08575 17.6584 5.03904 17.0147 5.03904 16.3931C5.03904 15.8853 4.88453 14.9774 5.13967 14.5135C5.20842 14.3885 5.32548 14.1873 5.45952 14.1254C5.68979 14.0191 5.6909 13.8217 5.73625 13.5899C5.8021 13.2533 5.88001 12.8448 5.88001 12.5046" stroke="black" stroke-width="3" stroke-linecap="round"/>
<path d="M5.9447 12.7633C6.17138 13.5634 6.33284 14.3917 6.33284 15.2215" stroke="black" stroke-width="3" stroke-linecap="round"/>
<path d="M6.37183 11.8533C6.51105 11.192 6.30888 10.5059 6.46699 9.84707C6.56877 9.42301 6.49093 8.98488 6.55756 8.55769C6.58904 8.35583 6.5611 8.15195 6.58672 7.95061C6.60682 7.7927 6.60668 7.63789 6.60668 7.47861C6.60668 7.19785 6.63031 6.91748 6.63431 6.63744C6.63757 6.4088 6.64425 6.17981 6.60668 5.95438" stroke="black" stroke-width="3" stroke-linecap="round"/>
<path d="M7.38031 5.49849C7.2959 5.08657 7.16652 4.69036 7.0902 4.27665C7.0247 3.92159 6.90882 3.5866 6.86149 3.22826C6.852 3.15642 6.82772 3.09087 6.82772 3.01797C6.82772 2.96916 6.83687 2.90131 6.77246 2.90131" stroke="black" stroke-width="3" stroke-linecap="round"/>
<path d="M6.66193 2.97039C5.65371 2.97039 4.64548 2.97039 3.63726 2.97039C3.24911 2.97039 2.86029 2.95908 2.47682 2.89517C2.25705 2.85854 2.04129 2.76653 1.82522 2.71097C1.78469 2.70055 1.64717 2.69398 1.64717 2.63039C1.64717 2.58783 1.65057 2.55934 1.61954 2.52831" stroke="black" stroke-width="3" stroke-linecap="round"/>
<path d="M1.73006 3.20524C1.69731 3.53468 1.68862 3.86127 1.68862 4.19223C1.68862 4.53629 1.66457 4.89097 1.70627 5.23294C1.74028 5.5118 1.83661 5.78024 1.8897 6.05569C1.93783 6.30541 1.98495 6.54628 2.05087 6.79247C2.09944 6.97386 2.12053 7.14872 2.14757 7.33355C2.17808 7.542 2.23236 7.74687 2.26807 7.95445C2.34322 8.39128 2.36554 8.82379 2.36554 9.26685C2.36554 9.48598 2.39642 9.70425 2.39317 9.92229C2.39065 10.0911 2.32703 10.245 2.29723 10.4089C2.25063 10.6652 2.25709 10.9243 2.23814 11.1825C2.23019 11.2908 2.22356 11.3977 2.18595 11.5002C2.16954 11.545 2.15832 11.5851 2.15832 11.6322" stroke="black" stroke-width="3" stroke-linecap="round"/>
<path d="M7.9329 5.85767C8.07095 5.89448 8.21127 5.87579 8.35041 5.90525C8.50686 5.93838 8.68774 5.96493 8.83086 6.03649C8.95581 6.09897 9.04328 6.04024 9.16241 6.03726C9.25438 6.03496 9.33621 5.99582 9.42489 5.99582C9.53794 5.99582 9.64713 5.98742 9.75952 5.982C10.0414 5.96842 10.3106 5.9785 10.5907 5.99428C10.6598 5.99818 10.7519 6.00983 10.8202 5.99275C10.9666 5.95614 11.021 5.62157 11.0489 5.51076C11.2154 4.85039 11.1164 4.19476 10.748 3.61814C10.644 3.45531 10.5029 3.25658 10.306 3.20063C10.2314 3.17945 10.1501 3.1796 10.0734 3.17837C9.81862 3.17429 9.56415 3.19435 9.31054 3.21675C8.61346 3.2783 7.92143 3.34935 7.22144 3.37024C7.02279 3.37617 6.42754 3.41067 6.62587 3.39787C6.90532 3.37984 7.17809 3.31868 7.45936 3.30577C7.89962 3.28558 8.34115 3.28893 8.78174 3.28812C9.09001 3.28755 9.415 3.26314 9.72268 3.3004C9.81579 3.31168 9.97566 3.34805 9.91762 3.47692C9.83885 3.65183 9.61241 3.70932 9.44024 3.72405C9.2971 3.73631 9.11883 3.7312 9.01199 3.61968C8.9461 3.5509 8.89761 3.45805 8.84084 3.38252C8.72781 3.23215 8.60513 3.08195 8.45326 2.96885C8.39987 2.92909 8.2157 2.86793 8.29669 2.76853C8.41848 2.61906 8.73598 2.6177 8.78942 2.40398" stroke="black" stroke-width="3" stroke-linecap="round"/>
<path d="M8.49553 22.6068C8.1727 22.5967 7.8059 22.6167 7.51823 22.4404C7.49298 22.4249 7.35179 22.3218 7.35179 22.2782C7.35179 22.1173 7.88068 22.099 7.97701 22.0883C8.39162 22.0422 8.80517 21.9539 9.22531 21.9539C9.56249 21.9539 9.84831 21.8589 10.177 21.7917C10.4776 21.7302 10.845 21.8111 11.1287 21.685C11.1968 21.6547 11.3801 21.5947 11.2674 21.732C11.1042 21.9307 10.8787 22.0863 10.6849 22.2526C10.4177 22.4818 10.2119 22.7363 9.99136 23.008C9.75823 23.2952 9.53196 23.5778 9.20824 23.7591C9.07429 23.8341 8.90449 23.8483 8.7836 23.9319C8.56491 24.0833 8.24771 24.0725 8.00475 24.1731C7.7794 24.2663 7.63716 24.4939 7.49689 24.6809" stroke="black" stroke-width="3" stroke-linecap="round"/>
<path d="M7.57372 24.6809C7.91468 24.507 8.17614 24.4035 8.56382 24.4121C9.01532 24.4221 9.43137 24.6041 9.8868 24.6041C10.0504 24.6041 10.214 24.6041 10.3776 24.6041" stroke="black" stroke-width="3" stroke-linecap="round"/>
<path d="M15.6128 40.5679C16.5558 40.5679 17.4989 40.5679 18.4419 40.5679C18.7005 40.5679 18.9452 40.5151 19.2054 40.5151C19.5219 40.5151 19.8408 40.4976 20.1553 40.4976C20.2733 40.4976 20.2176 40.1631 20.2168 40.0973C20.2123 39.7282 20.0458 39.6469 19.7042 39.6014C19.2916 39.5464 18.8812 39.4875 18.4702 39.4208C18.2667 39.3877 18.0646 39.3553 17.8581 39.3553C17.6565 39.3553 17.45 39.3794 17.2519 39.4159C16.9051 39.4798 16.581 39.343 16.2707 39.207C16.1293 39.1449 15.9781 39.1054 15.8334 39.0517C15.786 39.0342 15.6855 39.0221 15.6694 38.9609C15.6252 38.7932 15.7947 38.6573 15.9056 38.5646C16.2394 38.2856 16.7099 38.3259 17.1181 38.2737C17.6238 38.209 18.145 38.2307 18.6538 38.2307C18.946 38.2307 19.2402 38.2395 19.5324 38.2297C19.6567 38.2256 19.7792 38.2021 19.9034 38.1965C19.9456 38.1947 19.9859 38.2026 20.0235 38.1819C20.1181 38.1299 20.251 38.0612 20.2773 37.9486C20.3853 37.4855 19.832 37.1474 19.4611 37.0377C19.0116 36.9048 18.5253 36.8167 18.0573 36.7917C17.8254 36.7793 17.625 36.829 17.4013 36.8854C17.1899 36.9387 16.9856 36.9303 16.7686 36.9303C16.4511 36.9303 16.1346 36.9168 15.8178 36.9128C15.7094 36.9114 15.6637 36.8615 15.6313 36.7536C15.5806 36.5846 15.6078 36.3917 15.7748 36.2997C15.9316 36.2133 16.1463 36.1805 16.3196 36.1474C16.5863 36.0964 16.8569 36.0618 17.1279 36.0439C17.4551 36.0223 17.7859 36.0341 18.1139 36.0341C18.6934 36.0341 19.2691 36.0166 19.8477 36.0166" stroke="black" stroke-width="3" stroke-linecap="round"/>
<path d="M20.1465 34.5932C20.0686 34.5812 19.9773 34.5909 19.9024 34.5678C19.8262 34.5442 19.746 34.5072 19.6681 34.4916C19.6089 34.4798 19.551 34.4917 19.4924 34.4741C19.4198 34.4523 19.3416 34.433 19.2678 34.4175C18.8772 34.3351 18.4804 34.2998 18.0866 34.2378C17.7218 34.1804 17.3599 34.1162 16.9893 34.1187C16.7447 34.1204 16.5445 34.2679 16.3156 34.3257C16.2258 34.3484 16.1275 34.3523 16.0345 34.3472C15.996 34.345 15.9896 34.2954 15.9857 34.2652C15.9671 34.1211 16.0052 34.0131 16.1399 33.943C16.3003 33.8595 16.4846 33.8162 16.6573 33.7673C16.8482 33.7132 17.0394 33.6534 17.2333 33.6111C17.4727 33.5588 17.7093 33.5388 17.9538 33.5388C18.2817 33.5388 18.6065 33.5115 18.934 33.5037C19.1378 33.4988 19.3321 33.3976 19.5236 33.3397C19.7149 33.2818 19.8858 33.218 20.0196 33.0683C20.0875 32.9922 19.9209 32.8572 19.8751 32.8105C19.6071 32.5376 19.3256 32.3611 18.9457 32.2697C18.7779 32.2293 18.6159 32.1843 18.4419 32.1857C18.312 32.1868 18.1989 32.2381 18.0729 32.2599C17.9121 32.2878 17.7445 32.3843 17.5984 32.4532C17.4562 32.5203 17.2855 32.5853 17.1318 32.6211C17.0038 32.651 16.8977 32.7296 16.7725 32.7695C16.6848 32.7975 16.6078 32.8008 16.5168 32.8008C16.3803 32.8008 16.1985 32.7668 16.0696 32.8183" stroke="black" stroke-width="3" stroke-linecap="round"/>
<path d="M1.97641 40.48C1.97031 40.6081 1.87545 40.6356 1.79385 40.7172C1.76126 40.7498 1.73633 40.7933 1.69525 40.8139" stroke="black" stroke-width="3" stroke-linecap="round"/>
<path d="M19.0921 31.518C19.0795 31.3153 18.9767 31.1057 18.891 30.9244C18.8662 30.872 18.7934 30.7745 18.7934 30.7096C18.7934 30.6333 18.9814 30.6997 19.0111 30.7116C19.1866 30.7818 19.221 31.0031 19.3196 31.146C19.4179 31.2885 19.5208 31.4064 19.6632 31.5014C19.6919 31.5205 19.7158 31.5238 19.7423 31.5395C19.7545 31.5466 19.7599 31.5833 19.7599 31.557C19.7599 31.5109 19.752 31.4679 19.7462 31.4223C19.722 31.2316 19.6502 31.0556 19.6154 30.8678C19.5944 30.7545 19.5703 30.6493 19.5422 30.5368C19.5142 30.4248 19.44 30.3383 19.4104 30.2274C19.3491 29.9977 19.5005 30.6941 19.5412 30.9283C19.5669 31.0762 19.6711 31.2395 19.7599 31.3579C19.8809 31.5192 19.9095 31.6779 19.9786 31.8606C20.0793 32.1274 20.1266 32.3971 20.1104 32.6817C20.107 32.7409 20.0452 32.8037 19.9942 32.832C19.939 32.8627 19.8593 32.8578 19.7989 32.8623C19.6585 32.8728 19.5238 32.893 19.385 32.916C19.0187 32.9767 18.6295 32.9414 18.2594 32.9414C18.1134 32.9414 17.9711 32.9381 17.8269 32.914C17.7 32.8929 17.5546 32.8341 17.4403 32.7754C17.2839 32.6951 17.1787 32.5634 17.0518 32.4493C16.8849 32.2993 16.6808 32.118 16.466 32.0452C16.3457 32.0044 16.0973 31.9971 16.0706 31.8235C16.0454 31.6598 16.0202 31.4473 16.0735 31.2895C16.1593 31.0358 16.2512 30.7551 16.2961 30.491C16.3348 30.2638 16.3403 30.0421 16.3518 29.8134C16.3589 29.6708 16.3842 29.5289 16.3859 29.3858C16.3874 29.2657 16.3959 29.2118 16.5304 29.216C16.6873 29.2209 16.8395 29.3106 16.9922 29.3458C17.1017 29.3711 17.2237 29.3993 17.3349 29.4132C17.5244 29.4369 17.6939 29.5125 17.8777 29.5567C18.0048 29.5873 18.1127 29.6215 18.2291 29.6797C18.3008 29.7155 18.5212 29.7113 18.6001 29.6807C18.7062 29.6394 18.8191 29.6026 18.934 29.6026C19.0463 29.6026 19.137 29.6751 19.2405 29.6563C19.335 29.6391 19.3533 29.5654 19.3557 29.4698C19.3623 29.2125 19.3854 28.9281 19.3479 28.6732C19.3195 28.4805 19.2646 28.2866 19.1868 28.1079C19.1323 27.9827 19.0565 27.866 18.9886 27.7477C18.9121 27.6142 18.8382 27.471 18.7153 27.3738C18.5608 27.2516 18.3685 27.1955 18.1823 27.1424C18.082 27.1138 17.9844 27.0839 17.8796 27.0897C17.8352 27.0921 18.1594 27.506 18.1803 27.529C18.447 27.8223 18.7673 28.0641 18.9974 28.3901C19.1493 28.6051 19.2226 28.8443 19.3391 29.0773C19.4138 29.2268 19.5026 29.3696 19.5978 29.5069C19.6653 29.6042 19.7043 29.7076 19.7696 29.8056C19.817 29.8767 19.9035 30.0136 19.8653 30.1014C19.8272 30.1891 19.8494 30.2527 19.7423 30.2527" stroke="black" stroke-width="3" stroke-linecap="round"/>
<path d="M7.2482 24.0848C7.34813 24.2047 7.46169 24.189 7.60746 24.1902C7.74704 24.1914 7.88726 24.21 8.0253 24.2293C8.26844 24.2631 8.51308 24.2948 8.75358 24.3445C8.8603 24.3665 8.96177 24.4127 9.06794 24.4323C9.20863 24.4584 9.35863 24.4605 9.49554 24.5026C9.50826 24.5065 9.58654 24.519 9.58535 24.5417C9.58208 24.6039 9.44263 24.6587 9.39987 24.6783C8.93456 24.8917 8.38848 24.6761 7.9101 24.815C7.81542 24.8425 7.74112 24.8404 7.89643 24.8404C8.51024 24.8404 9.13757 24.881 9.74937 24.8306C10.2337 24.7907 10.7135 24.7877 11.1991 24.7877C11.2665 24.7877 11.3212 24.7652 11.3856 24.7535C11.3963 24.7516 11.1922 24.7683 11.1698 24.7701C10.814 24.7988 10.4555 24.7877 10.0989 24.7877C9.5035 24.7877 8.91907 24.8522 8.32696 24.8746C7.97626 24.8878 7.62727 24.8615 7.28334 24.9107" stroke="black" stroke-width="3" stroke-linecap="round"/>
<path d="M15.7885 27.7223C15.7231 27.5163 15.5912 27.3566 15.4741 27.1775C15.3524 26.9914 15.2709 26.7844 15.152 26.5977C14.988 26.3403 14.7825 26.1221 14.5496 25.9289C14.438 25.8364 14.3228 25.7618 14.205 25.678C14.0721 25.5835 13.9498 25.4299 13.792 25.3773C13.5332 25.2911 13.2586 25.2403 12.9944 25.1743" stroke="black" stroke-width="3" stroke-linecap="round"/>
<path d="M15.9466 28.5306C15.7683 28.2886 15.5808 28.0593 15.3677 27.8463C15.2104 27.689 14.9818 27.6347 14.8483 27.4568C14.6423 27.182 14.5332 26.8705 14.2558 26.6543C14.0971 26.5307 13.9143 26.425 13.7296 26.3438C13.4329 26.2134 13.1658 26.069 12.889 25.8986C12.8168 25.8542 12.2033 25.3504 12.2212 25.3324" stroke="black" stroke-width="3" stroke-linecap="round"/>
<path d="M15.314 29.3214C15.3081 29.1846 15.2641 29.0567 15.2613 28.9192C15.2592 28.8145 15.2613 28.7095 15.2613 28.6048C15.2613 28.4334 15.2522 28.3885 15.437 28.3549" stroke="black" stroke-width="3" stroke-linecap="round"/>
<path d="M17.7039 28.0562C17.8683 27.9061 17.9955 27.7161 18.1042 27.5231C18.1515 27.4391 18.2164 27.3595 18.2584 27.2732C18.2966 27.1948 18.2662 27.045 18.2662 26.9589C18.2662 26.7975 18.2662 26.636 18.2662 26.4746C18.2662 26.4377 18.2678 26.4002 18.2662 26.3633C18.2612 26.2456 18.1967 26.1763 18.1618 26.0714C18.1183 25.9412 17.933 25.9174 17.8171 25.885C17.6079 25.8264 17.4079 25.7416 17.1992 25.6819C17.0187 25.6304 16.8383 25.5826 16.6573 25.5335C16.5392 25.5015 16.4279 25.4398 16.3108 25.4017C15.9433 25.2823 15.5499 25.23 15.191 25.0864" stroke="black" stroke-width="3" stroke-linecap="round"/>
<path d="M19.6193 26.9315C19.5855 26.6951 19.4863 26.4615 19.2434 26.3868C19.1543 26.3593 19.0882 26.2813 19.0101 26.2345C18.86 26.1444 18.7006 26.0545 18.563 25.9475C18.4749 25.879 18.3546 25.7966 18.2525 25.7532C18.1474 25.7084 18.0409 25.6618 17.9333 25.6233C17.8092 25.579 17.6987 25.5017 17.5731 25.4632C17.3292 25.3885 17.0829 25.3723 16.8389 25.3188C16.6585 25.2791 16.4899 25.1647 16.3078 25.1137C16.2624 25.101 16.2113 25.0904 16.1643 25.0874C16.0612 25.0807 15.9667 25.0474 15.8646 25.0376C15.5821 25.0103 15.3061 24.9291 15.025 24.8833C14.7909 24.8452 14.5375 24.7823 14.3124 24.7086C14.2047 24.6733 14.0955 24.6574 13.9844 24.6373C13.8015 24.6043 13.624 24.538 13.4474 24.4811C13.1625 24.3894 12.8902 24.2689 12.6039 24.1804C12.4553 24.1346 12.315 24.0902 12.1783 24.0145C12.145 23.996 11.9623 23.909 11.9928 23.909" stroke="black" stroke-width="3" stroke-linecap="round"/>
<path d="M17.5985 25.0161C17.4072 25.0378 17.2605 24.9184 17.0771 24.8931C16.7749 24.8514 16.509 24.6893 16.2102 24.6295C15.6704 24.5216 15.1369 24.4032 14.6082 24.2507C14.4873 24.2158 14.3743 24.161 14.2548 24.1219C14.1673 24.0932 14.0766 24.0794 13.9922 24.0418C13.8413 23.9746 13.6919 23.9313 13.5402 23.8719C13.3546 23.7993 13.2141 23.6495 13.0335 23.5713C12.9613 23.54 12.9463 23.3747 12.9378 23.3096C12.919 23.1651 12.9187 23.0189 12.9066 22.8732C12.8987 22.7783 12.8511 22.6119 12.9066 22.5247C13.0233 22.3412 13.2513 22.2459 13.4416 22.1606C13.5622 22.1065 13.6785 22.0289 13.795 21.9673C13.8896 21.9172 14.0253 21.8931 14.1308 21.8667C14.2408 21.8392 14.3513 21.7825 14.451 21.73C14.5284 21.6893 14.6293 21.6505 14.699 21.5982C14.8248 21.5039 15.018 21.4795 15.1656 21.4372C15.5927 21.3147 16.0332 21.3259 16.4738 21.3259" stroke="black" stroke-width="3" stroke-linecap="round"/>
<path d="M15.547 22.4947C15.931 22.3923 16.2674 22.3319 16.5999 22.0976C16.8783 21.9015 17.2859 21.7597 17.4822 21.4771C17.7017 21.161 17.9078 20.8962 18.1645 20.6066C18.4008 20.3399 17.9088 20.7197 17.8351 20.7654C17.4697 20.9916 18.0097 20.4544 18.1145 20.3772C18.467 20.1174 18.5933 19.6487 18.8291 19.2949C19.1951 18.7459 19.1805 18.0177 19.3408 17.401C19.4871 16.8384 19.5173 16.3772 19.5173 15.7952C19.5173 14.5131 19.5285 13.2305 19.5173 11.9485C19.51 11.1127 19.4114 10.2843 19.4114 9.44573C19.4114 8.58346 19.278 7.80238 19.1585 6.95475C19.0571 6.23577 18.8145 5.40242 18.3292 4.8461C17.9029 4.3575 17.4722 4.17644 16.8999 3.88442C16.0858 3.46909 15.3224 3.14029 14.4236 2.9492C13.6992 2.79519 12.9754 2.68636 12.2414 2.56688C12.0265 2.53188 11.8165 2.54402 11.6003 2.53747C11.4228 2.53209 11.3266 2.43159 11.1415 2.43159C10.7925 2.43159 10.4435 2.43159 10.0945 2.43159" stroke="black" stroke-width="3" stroke-linecap="round"/>
<path d="M19.0754 19.1079C19.2253 18.8318 19.3966 18.5556 19.4475 18.2402C19.469 18.1071 19.4706 17.9675 19.4717 17.8328C19.4736 17.6098 19.5541 17.4131 19.6105 17.1975C19.6661 16.9851 19.7191 16.7717 19.7844 16.5622C19.8287 16.4203 19.9219 16.2953 19.9573 16.1537C20.0264 15.8775 20.0836 15.5621 20.0861 15.2762C20.0883 15.0222 20.0499 14.7293 20.1456 14.49" stroke="black" stroke-width="3" stroke-linecap="round"/>
<path d="M19.769 15.8377C19.7757 15.0935 19.8352 14.3456 19.7283 13.6059C19.6995 13.4065 19.6716 13.2138 19.714 13.0146C19.7588 12.8037 19.8134 12.5956 19.8571 12.3848C19.9185 12.089 19.9276 11.8085 19.9276 11.5073C19.9276 11.1146 19.8087 10.7276 19.8087 10.3369C19.8087 10.0485 19.8044 9.75976 19.8087 9.47143C19.8132 9.16699 19.8518 8.85867 19.8274 8.55315C19.8204 8.46523 19.8078 8.37375 19.7933 8.28669C19.7688 8.13973 19.778 7.9869 19.7338 7.84407C19.6888 7.6986 19.6575 7.52843 19.5907 7.39484" stroke="black" stroke-width="3" stroke-linecap="round"/>
<path d="M12.9513 20.6736C13.0801 20.6281 13.1986 20.5607 13.3279 20.5161C13.484 20.4623 13.6406 20.4246 13.7925 20.3587C14.2478 20.1609 14.7119 20.0089 15.1512 19.7773C15.4629 19.6129 15.6489 19.2328 15.8361 18.9504C16.0415 18.6405 16.3818 18.3772 16.4493 17.9991C16.4868 17.7893 16.4482 17.565 16.4637 17.3528C16.4798 17.1302 16.5061 16.9086 16.5286 16.6866C16.5933 16.0496 16.6091 15.4051 16.6156 14.7653C16.6442 11.9717 16.6034 9.10953 15.5542 6.47875C15.3894 6.06549 15.1814 5.67109 14.9904 5.26979C14.8398 4.95322 14.6594 4.73725 14.3221 4.62017C13.94 4.48755 13.5301 4.38184 13.1341 4.30087C12.8646 4.24577 12.5817 4.24295 12.3083 4.21278C12.1901 4.19974 12.0627 4.19535 11.9449 4.21498C11.9142 4.22011 11.8219 4.23989 11.8943 4.27995C12.1318 4.41142 12.4388 4.45621 12.6936 4.5453C13.3123 4.76157 13.8865 5.03091 14.4256 5.40412C14.866 5.70901 15.3288 6.02857 15.6973 6.4204C15.9202 6.65735 16.0942 6.93354 16.3095 7.17682C16.3811 7.25774 16.4692 7.32572 16.5363 7.41025C16.6127 7.50641 16.6582 7.63321 16.7103 7.74277C16.7786 7.88618 16.84 8.03237 16.9063 8.17658C16.9485 8.26838 16.9257 8.14022 16.9217 8.11712C16.8448 7.67778 16.6348 7.26545 16.4526 6.86192C16.359 6.65436 16.3998 6.4159 16.3998 6.19138C16.3998 6.12752 16.3998 6.06366 16.3998 5.99979C16.3998 5.98558 16.3876 5.8737 16.4053 5.95685C16.5539 6.65529 16.84 7.31557 16.9668 8.02243C17.0801 8.65366 17.1172 9.27588 17.045 9.91405C17.0008 10.3055 16.871 10.6462 16.7676 11.0195C16.6788 11.3395 16.6334 11.6768 16.5022 11.9829C16.4151 12.1863 16.4235 12.3889 16.4185 12.6072C16.4113 12.926 16.303 13.2241 16.2809 13.5387C16.2733 13.6465 16.2151 13.7729 16.1818 13.8756C16.1193 14.0685 16.0332 14.2529 15.9726 14.446C15.7699 15.0917 15.6467 15.7233 15.6467 16.3971C15.6467 16.5394 15.6565 16.6867 15.6456 16.8287C15.6305 17.0251 15.5854 17.2165 15.5685 17.4111C15.561 17.4978 15.5672 17.2112 15.5674 17.1832C15.5693 16.914 15.6757 16.6678 15.6863 16.4015C15.7023 16.001 15.7656 15.6055 15.7656 15.2024C15.7656 14.8835 15.7656 14.5645 15.7656 14.2456C15.7656 13.9836 15.7851 14.4486 15.7854 14.501C15.7869 14.7818 15.7504 15.0432 15.6929 15.318C15.6354 15.5927 15.5734 15.8531 15.5366 16.1328C15.4989 16.419 15.4099 16.7063 15.3923 16.9938C15.3736 17.2999 15.4282 17.6246 15.3791 17.9286C15.3461 18.1331 15.2899 18.3406 15.2899 18.5485C15.2899 18.639 15.2508 18.7302 15.2107 18.8106" stroke="black" stroke-width="3" stroke-linecap="round"/>
<path d="M15.8845 12.6072C15.8809 12.2406 15.8144 11.8882 15.737 11.5304C15.6736 11.2375 15.6354 10.9456 15.5982 10.6485C15.5606 10.3471 15.5099 10.0567 15.5432 9.7533C15.6163 9.0858 15.3026 8.46423 14.8936 7.95858C14.6776 7.69165 14.3621 7.52222 14.1118 7.29464C14.0125 7.20436 13.9066 7.12279 13.8024 7.03809C13.6799 6.93856 13.5556 6.81414 13.4159 6.74081C13.0826 6.56583 12.7448 6.40096 12.4107 6.22772C12.2746 6.15715 12.1027 6.12626 11.9603 6.06696" stroke="black" stroke-width="3" stroke-linecap="round"/>
<path d="M21.1982 21.4638C21.1962 21.3829 21.1677 21.3592 21.1276 21.2991" stroke="white" stroke-linecap="round"/>
<path d="M21.9492 24.3701C21.9076 24.4704 21.7973 24.5421 21.7164 24.6107C21.673 24.6474 21.6174 24.6769 21.5683 24.7059C21.5315 24.7276 21.4942 24.7483 21.458 24.771C21.434 24.7861 21.405 24.7829 21.3834 24.7966C21.3186 24.8379 21.2618 24.9006 21.1924 24.9314C21.1667 24.9428 21.1457 24.9515 21.1172 24.9515C21.1097 24.9515 21.1557 24.9515 21.1673 24.9515" stroke="white" stroke-linecap="round"/>
</svg>
